<mxfile host="app.diagrams.net" modified="2023-05-12T06:00:29.052Z" agent="Mozilla/5.0 (Windows NT 10.0; Win64; x64) AppleWebKit/537.36 (KHTML, like Gecko) Chrome/113.0.0.0 Safari/537.36" version="21.2.9" etag="xJIbL0z8JOGozY3VJkpz" type="device">
  <diagram id="2cKGH_q_KF4bcHUkuHSU" name="Page-1">
    <mxGraphModel dx="1068" dy="1124" grid="1" gridSize="10" guides="1" tooltips="1" connect="1" arrows="1" fold="1" page="1" pageScale="1" pageWidth="850" pageHeight="1100" background="none" math="0" shadow="0">
      <root>
        <mxCell id="0" />
        <mxCell id="1" parent="0" />
        <mxCell id="0neUY3C6GyZUvxR9DmCA-2" value="&lt;div style=&quot;box-sizing:border-box;width:100%;background:#e4e4e4;padding:2px;&quot;&gt;&lt;b&gt;User&lt;/b&gt;&lt;/div&gt;&lt;table style=&quot;width:100%;font-size:1em;&quot; cellpadding=&quot;2&quot; cellspacing=&quot;0&quot;&gt;&lt;tbody&gt;&lt;tr&gt;&lt;td&gt;PK&lt;/td&gt;&lt;td&gt;&lt;b&gt;user_id&lt;/b&gt;&lt;/td&gt;&lt;td&gt;uuid&lt;/td&gt;&lt;/tr&gt;&lt;tr&gt;&lt;td&gt;&lt;br&gt;&lt;/td&gt;&lt;td&gt;email&lt;/td&gt;&lt;td&gt;string&lt;/td&gt;&lt;/tr&gt;&lt;tr&gt;&lt;td&gt;&lt;br&gt;&lt;/td&gt;&lt;td&gt;first_name&lt;/td&gt;&lt;td&gt;string&lt;/td&gt;&lt;/tr&gt;&lt;tr&gt;&lt;td&gt;&lt;/td&gt;&lt;td&gt;last_name&lt;/td&gt;&lt;td&gt;string&lt;/td&gt;&lt;/tr&gt;&lt;tr&gt;&lt;td&gt;&lt;br&gt;&lt;/td&gt;&lt;td&gt;picture_url&lt;/td&gt;&lt;td&gt;string&lt;/td&gt;&lt;/tr&gt;&lt;tr&gt;&lt;td&gt;&lt;br&gt;&lt;/td&gt;&lt;td&gt;notification_settings&lt;/td&gt;&lt;td&gt;JSON&lt;/td&gt;&lt;/tr&gt;&lt;tr&gt;&lt;td&gt;&lt;br&gt;&lt;/td&gt;&lt;td&gt;status&lt;/td&gt;&lt;td&gt;number&lt;/td&gt;&lt;/tr&gt;&lt;tr&gt;&lt;td&gt;&lt;br&gt;&lt;/td&gt;&lt;td&gt;system_admin&lt;/td&gt;&lt;td&gt;boolean&lt;/td&gt;&lt;/tr&gt;&lt;/tbody&gt;&lt;/table&gt;" style="verticalAlign=top;align=left;overflow=fill;html=1;whiteSpace=wrap;strokeWidth=2;labelBorderColor=default;" parent="1" vertex="1">
          <mxGeometry x="42.5" y="190" width="195" height="170" as="geometry" />
        </mxCell>
        <mxCell id="0neUY3C6GyZUvxR9DmCA-3" value="&lt;div style=&quot;box-sizing:border-box;width:100%;background:#e4e4e4;padding:2px;&quot;&gt;&lt;b&gt;Club&lt;/b&gt;&lt;/div&gt;&lt;table style=&quot;width:100%;font-size:1em;&quot; cellpadding=&quot;2&quot; cellspacing=&quot;0&quot;&gt;&lt;tbody&gt;&lt;tr&gt;&lt;td&gt;PK&lt;/td&gt;&lt;td&gt;&lt;b&gt;club_id&lt;/b&gt;&lt;/td&gt;&lt;td&gt;uuid&lt;/td&gt;&lt;/tr&gt;&lt;tr&gt;&lt;td&gt;&lt;br&gt;&lt;/td&gt;&lt;td&gt;name&lt;/td&gt;&lt;td&gt;string&lt;/td&gt;&lt;/tr&gt;&lt;tr&gt;&lt;td&gt;&lt;br&gt;&lt;/td&gt;&lt;td&gt;description&lt;/td&gt;&lt;td&gt;string&lt;/td&gt;&lt;/tr&gt;&lt;tr&gt;&lt;td&gt;&lt;/td&gt;&lt;td&gt;private&lt;/td&gt;&lt;td&gt;boolean&lt;/td&gt;&lt;/tr&gt;&lt;tr&gt;&lt;td&gt;&lt;br&gt;&lt;/td&gt;&lt;td&gt;status&lt;/td&gt;&lt;td&gt;number&lt;/td&gt;&lt;/tr&gt;&lt;tr&gt;&lt;td&gt;&lt;br&gt;&lt;/td&gt;&lt;td&gt;creation_date&lt;/td&gt;&lt;td&gt;Date&lt;/td&gt;&lt;/tr&gt;&lt;/tbody&gt;&lt;/table&gt;" style="verticalAlign=top;align=left;overflow=fill;html=1;whiteSpace=wrap;strokeWidth=2;labelBorderColor=default;" parent="1" vertex="1">
          <mxGeometry x="620" y="420" width="160" height="140" as="geometry" />
        </mxCell>
        <mxCell id="13" style="edgeStyle=orthogonalEdgeStyle;html=1;entryX=0.001;entryY=0.144;entryDx=0;entryDy=0;entryPerimeter=0;exitX=1.008;exitY=0.946;exitDx=0;exitDy=0;exitPerimeter=0;" parent="1" source="0neUY3C6GyZUvxR9DmCA-4" target="0neUY3C6GyZUvxR9DmCA-7" edge="1">
          <mxGeometry relative="1" as="geometry">
            <mxPoint x="590" y="150" as="targetPoint" />
            <Array as="points">
              <mxPoint x="580" y="402" />
              <mxPoint x="580" y="117" />
            </Array>
          </mxGeometry>
        </mxCell>
        <mxCell id="14" style="edgeStyle=orthogonalEdgeStyle;html=1;entryX=-0.005;entryY=0.208;entryDx=0;entryDy=0;entryPerimeter=0;exitX=0.994;exitY=0.807;exitDx=0;exitDy=0;exitPerimeter=0;" parent="1" source="0neUY3C6GyZUvxR9DmCA-4" target="0neUY3C6GyZUvxR9DmCA-3" edge="1">
          <mxGeometry relative="1" as="geometry">
            <mxPoint x="530" y="380" as="sourcePoint" />
            <Array as="points">
              <mxPoint x="560" y="381" />
              <mxPoint x="560" y="449" />
            </Array>
          </mxGeometry>
        </mxCell>
        <mxCell id="0neUY3C6GyZUvxR9DmCA-4" value="&lt;div style=&quot;box-sizing:border-box;width:100%;background:#e4e4e4;padding:2px;&quot;&gt;&lt;b&gt;Posts&lt;/b&gt;&lt;/div&gt;&lt;table style=&quot;width:100%;font-size:1em;&quot; cellpadding=&quot;2&quot; cellspacing=&quot;0&quot;&gt;&lt;tbody&gt;&lt;tr&gt;&lt;td&gt;PK&lt;/td&gt;&lt;td&gt;&lt;b&gt;post_id&lt;/b&gt;&lt;/td&gt;&lt;td&gt;uuid&lt;/td&gt;&lt;/tr&gt;&lt;tr&gt;&lt;td&gt;&lt;br&gt;&lt;/td&gt;&lt;td&gt;title&lt;/td&gt;&lt;td&gt;string&lt;/td&gt;&lt;/tr&gt;&lt;tr&gt;&lt;td&gt;&lt;br&gt;&lt;/td&gt;&lt;td&gt;content&lt;/td&gt;&lt;td&gt;string&lt;/td&gt;&lt;/tr&gt;&lt;tr&gt;&lt;td&gt;&lt;/td&gt;&lt;td&gt;images&lt;/td&gt;&lt;td&gt;string[]&lt;/td&gt;&lt;/tr&gt;&lt;tr&gt;&lt;td&gt;&lt;br&gt;&lt;/td&gt;&lt;td&gt;status&lt;/td&gt;&lt;td&gt;number&lt;/td&gt;&lt;/tr&gt;&lt;tr&gt;&lt;td&gt;FK&lt;/td&gt;&lt;td&gt;club_id&lt;/td&gt;&lt;td&gt;uuid&lt;/td&gt;&lt;/tr&gt;&lt;tr&gt;&lt;td&gt;FK&lt;/td&gt;&lt;td&gt;event_id&lt;/td&gt;&lt;td&gt;uuid | null&lt;/td&gt;&lt;/tr&gt;&lt;/tbody&gt;&lt;/table&gt;" style="verticalAlign=top;align=left;overflow=fill;html=1;whiteSpace=wrap;perimeterSpacing=0;strokeWidth=2;labelBorderColor=default;" parent="1" vertex="1">
          <mxGeometry x="350" y="260" width="185" height="150" as="geometry" />
        </mxCell>
        <mxCell id="15" style="edgeStyle=orthogonalEdgeStyle;html=1;exitX=1.001;exitY=0.331;exitDx=0;exitDy=0;entryX=-0.01;entryY=0.208;entryDx=0;entryDy=0;entryPerimeter=0;exitPerimeter=0;" parent="1" source="0neUY3C6GyZUvxR9DmCA-5" target="0neUY3C6GyZUvxR9DmCA-3" edge="1">
          <mxGeometry relative="1" as="geometry" />
        </mxCell>
        <mxCell id="16" style="edgeStyle=orthogonalEdgeStyle;html=1;exitX=-0.013;exitY=0.581;exitDx=0;exitDy=0;entryX=1.004;entryY=0.134;entryDx=0;entryDy=0;entryPerimeter=0;exitPerimeter=0;" parent="1" source="0neUY3C6GyZUvxR9DmCA-5" target="0neUY3C6GyZUvxR9DmCA-2" edge="1">
          <mxGeometry relative="1" as="geometry" />
        </mxCell>
        <mxCell id="0neUY3C6GyZUvxR9DmCA-5" value="&lt;div style=&quot;box-sizing:border-box;width:100%;background:#e4e4e4;padding:2px;&quot;&gt;ClubUser&lt;/div&gt;&lt;table style=&quot;width:100%;font-size:1em;&quot; cellpadding=&quot;2&quot; cellspacing=&quot;0&quot;&gt;&lt;tbody&gt;&lt;tr&gt;&lt;td&gt;FK&lt;/td&gt;&lt;td&gt;club_id&lt;/td&gt;&lt;td&gt;uuid&lt;/td&gt;&lt;/tr&gt;&lt;tr&gt;&lt;td&gt;FK&lt;/td&gt;&lt;td&gt;user_id&lt;/td&gt;&lt;td&gt;uuid&lt;/td&gt;&lt;/tr&gt;&lt;tr&gt;&lt;td&gt;&lt;/td&gt;&lt;td&gt;role&lt;/td&gt;&lt;td&gt;string&lt;/td&gt;&lt;/tr&gt;&lt;/tbody&gt;&lt;/table&gt;" style="verticalAlign=top;align=left;overflow=fill;html=1;whiteSpace=wrap;strokeWidth=2;labelBorderColor=default;" parent="1" vertex="1">
          <mxGeometry x="352.5" y="450" width="180" height="80" as="geometry" />
        </mxCell>
        <mxCell id="11" style="edgeStyle=orthogonalEdgeStyle;html=1;entryX=0.994;entryY=0.137;entryDx=0;entryDy=0;entryPerimeter=0;exitX=0;exitY=0.25;exitDx=0;exitDy=0;" parent="1" source="0neUY3C6GyZUvxR9DmCA-6" target="0neUY3C6GyZUvxR9DmCA-2" edge="1">
          <mxGeometry relative="1" as="geometry">
            <mxPoint x="330" y="140" as="sourcePoint" />
            <Array as="points">
              <mxPoint x="335" y="140" />
              <mxPoint x="260" y="140" />
              <mxPoint x="260" y="213" />
            </Array>
          </mxGeometry>
        </mxCell>
        <mxCell id="19" style="edgeStyle=orthogonalEdgeStyle;html=1;entryX=-0.002;entryY=0.143;entryDx=0;entryDy=0;entryPerimeter=0;exitX=1.002;exitY=0.433;exitDx=0;exitDy=0;exitPerimeter=0;" parent="1" source="0neUY3C6GyZUvxR9DmCA-6" target="0neUY3C6GyZUvxR9DmCA-7" edge="1">
          <mxGeometry relative="1" as="geometry" />
        </mxCell>
        <mxCell id="0neUY3C6GyZUvxR9DmCA-6" value="&lt;div style=&quot;box-sizing:border-box;width:100%;background:#e4e4e4;padding:2px;&quot;&gt;EventUser&lt;/div&gt;&lt;table style=&quot;width:100%;font-size:1em;&quot; cellpadding=&quot;2&quot; cellspacing=&quot;0&quot;&gt;&lt;tbody&gt;&lt;tr&gt;&lt;td&gt;FK&lt;/td&gt;&lt;td&gt;user_id&lt;/td&gt;&lt;td&gt;uuid&lt;/td&gt;&lt;/tr&gt;&lt;tr&gt;&lt;td&gt;FK&lt;/td&gt;&lt;td&gt;event_id&lt;/td&gt;&lt;td&gt;uuid&lt;/td&gt;&lt;/tr&gt;&lt;tr&gt;&lt;td&gt;&lt;/td&gt;&lt;td&gt;rsvp&lt;/td&gt;&lt;td&gt;string&lt;/td&gt;&lt;/tr&gt;&lt;tr&gt;&lt;td&gt;&lt;br&gt;&lt;/td&gt;&lt;td&gt;notified_status&lt;/td&gt;&lt;td&gt;boolean&lt;/td&gt;&lt;/tr&gt;&lt;tr&gt;&lt;td&gt;&lt;br&gt;&lt;/td&gt;&lt;td&gt;&lt;br&gt;&lt;/td&gt;&lt;td&gt;&lt;br&gt;&lt;/td&gt;&lt;/tr&gt;&lt;/tbody&gt;&lt;/table&gt;" style="verticalAlign=top;align=left;overflow=fill;html=1;strokeWidth=2;labelBorderColor=default;whiteSpace=wrap;" parent="1" vertex="1">
          <mxGeometry x="352.5" y="80" width="180" height="110" as="geometry" />
        </mxCell>
        <mxCell id="17" style="edgeStyle=orthogonalEdgeStyle;html=1;exitX=0.997;exitY=0.833;exitDx=0;exitDy=0;entryX=1.001;entryY=0.192;entryDx=0;entryDy=0;entryPerimeter=0;exitPerimeter=0;" parent="1" source="0neUY3C6GyZUvxR9DmCA-7" target="0neUY3C6GyZUvxR9DmCA-3" edge="1">
          <mxGeometry relative="1" as="geometry" />
        </mxCell>
        <mxCell id="0neUY3C6GyZUvxR9DmCA-7" value="&lt;div style=&quot;box-sizing:border-box;width:100%;background:#e4e4e4;padding:2px;&quot;&gt;&lt;b&gt;Event&lt;/b&gt;&lt;/div&gt;&lt;table style=&quot;width:100%;font-size:1em;&quot; cellpadding=&quot;2&quot; cellspacing=&quot;0&quot;&gt;&lt;tbody&gt;&lt;tr&gt;&lt;td&gt;PK&lt;/td&gt;&lt;td&gt;&lt;b&gt;event_id&lt;/b&gt;&lt;/td&gt;&lt;td&gt;uuid&lt;/td&gt;&lt;/tr&gt;&lt;tr&gt;&lt;td&gt;&lt;br&gt;&lt;/td&gt;&lt;td&gt;title&lt;/td&gt;&lt;td&gt;string&lt;/td&gt;&lt;/tr&gt;&lt;tr&gt;&lt;td&gt;&lt;br&gt;&lt;/td&gt;&lt;td&gt;description&lt;/td&gt;&lt;td&gt;string&lt;/td&gt;&lt;/tr&gt;&lt;tr&gt;&lt;td&gt;&lt;/td&gt;&lt;td&gt;location&lt;/td&gt;&lt;td&gt;JSON&lt;/td&gt;&lt;/tr&gt;&lt;tr&gt;&lt;td&gt;&lt;br&gt;&lt;/td&gt;&lt;td&gt;start_time&lt;/td&gt;&lt;td&gt;Date&lt;/td&gt;&lt;/tr&gt;&lt;tr&gt;&lt;td&gt;&lt;br&gt;&lt;/td&gt;&lt;td&gt;end_time&lt;/td&gt;&lt;td&gt;Date&lt;/td&gt;&lt;/tr&gt;&lt;tr&gt;&lt;td&gt;&lt;br&gt;&lt;/td&gt;&lt;td&gt;creation_time&lt;/td&gt;&lt;td&gt;Date&lt;/td&gt;&lt;/tr&gt;&lt;tr&gt;&lt;td&gt;&lt;br&gt;&lt;/td&gt;&lt;td&gt;privacy&lt;/td&gt;&lt;td&gt;string&lt;/td&gt;&lt;/tr&gt;&lt;tr&gt;&lt;td&gt;FK&lt;/td&gt;&lt;td&gt;club_id&lt;/td&gt;&lt;td&gt;uuid&lt;/td&gt;&lt;/tr&gt;&lt;tr&gt;&lt;td&gt;&lt;br&gt;&lt;/td&gt;&lt;td&gt;status&lt;/td&gt;&lt;td&gt;number&lt;/td&gt;&lt;/tr&gt;&lt;/tbody&gt;&lt;/table&gt;" style="verticalAlign=top;align=left;overflow=fill;html=1;whiteSpace=wrap;strokeWidth=2;labelBorderColor=default;" parent="1" vertex="1">
          <mxGeometry x="610" y="90" width="210" height="210" as="geometry" />
        </mxCell>
        <mxCell id="7" style="edgeStyle=orthogonalEdgeStyle;html=1;exitX=0;exitY=0.75;exitDx=0;exitDy=0;entryX=-0.004;entryY=0.17;entryDx=0;entryDy=0;entryPerimeter=0;" parent="1" source="0neUY3C6GyZUvxR9DmCA-16" target="0neUY3C6GyZUvxR9DmCA-4" edge="1">
          <mxGeometry relative="1" as="geometry">
            <Array as="points">
              <mxPoint x="30" y="562" />
              <mxPoint x="30" y="420" />
              <mxPoint x="320" y="420" />
              <mxPoint x="320" y="286" />
            </Array>
          </mxGeometry>
        </mxCell>
        <mxCell id="8" style="edgeStyle=orthogonalEdgeStyle;html=1;exitX=0;exitY=0.909;exitDx=0;exitDy=0;entryX=-0.002;entryY=0.133;entryDx=0;entryDy=0;entryPerimeter=0;exitPerimeter=0;" parent="1" source="0neUY3C6GyZUvxR9DmCA-16" target="0neUY3C6GyZUvxR9DmCA-2" edge="1">
          <mxGeometry relative="1" as="geometry">
            <Array as="points">
              <mxPoint x="10" y="580" />
              <mxPoint x="10" y="213" />
            </Array>
          </mxGeometry>
        </mxCell>
        <mxCell id="0neUY3C6GyZUvxR9DmCA-16" value="&lt;div style=&quot;box-sizing:border-box;width:100%;background:#e4e4e4;padding:2px;&quot;&gt;&lt;b&gt;PostComments&lt;/b&gt;&lt;/div&gt;&lt;table style=&quot;width:100%;font-size:1em;&quot; cellpadding=&quot;2&quot; cellspacing=&quot;0&quot;&gt;&lt;tbody&gt;&lt;tr&gt;&lt;td&gt;PK&lt;/td&gt;&lt;td&gt;&lt;b&gt;comment_id&lt;/b&gt;&lt;/td&gt;&lt;td&gt;uuid&lt;/td&gt;&lt;/tr&gt;&lt;tr&gt;&lt;td&gt;&lt;br&gt;&lt;/td&gt;&lt;td&gt;parent_comment&lt;/td&gt;&lt;td&gt;uuid&lt;/td&gt;&lt;/tr&gt;&lt;tr&gt;&lt;td&gt;&lt;/td&gt;&lt;td&gt;content&lt;/td&gt;&lt;td&gt;string&lt;/td&gt;&lt;/tr&gt;&lt;tr&gt;&lt;td&gt;FK&lt;/td&gt;&lt;td&gt;post_id&lt;/td&gt;&lt;td&gt;uuid&lt;/td&gt;&lt;/tr&gt;&lt;tr&gt;&lt;td&gt;FK&lt;/td&gt;&lt;td&gt;user_id&lt;/td&gt;&lt;td&gt;uuid&lt;/td&gt;&lt;/tr&gt;&lt;/tbody&gt;&lt;/table&gt;" style="verticalAlign=top;align=left;overflow=fill;html=1;whiteSpace=wrap;strokeWidth=2;labelBorderColor=default;" parent="1" vertex="1">
          <mxGeometry x="50" y="480" width="180" height="110" as="geometry" />
        </mxCell>
        <mxCell id="9" style="edgeStyle=orthogonalEdgeStyle;html=1;exitX=0;exitY=0.75;exitDx=0;exitDy=0;entryX=-0.005;entryY=0.136;entryDx=0;entryDy=0;entryPerimeter=0;" parent="1" source="0neUY3C6GyZUvxR9DmCA-19" target="0neUY3C6GyZUvxR9DmCA-2" edge="1">
          <mxGeometry relative="1" as="geometry">
            <Array as="points">
              <mxPoint x="20" y="125" />
              <mxPoint x="20" y="213" />
            </Array>
          </mxGeometry>
        </mxCell>
        <mxCell id="0neUY3C6GyZUvxR9DmCA-19" value="&lt;div style=&quot;box-sizing:border-box;width:100%;background:#e4e4e4;padding:2px;&quot;&gt;&lt;b&gt;Session&lt;/b&gt;&lt;/div&gt;&lt;table style=&quot;width:100%;font-size:1em;&quot; cellpadding=&quot;2&quot; cellspacing=&quot;0&quot;&gt;&lt;tbody&gt;&lt;tr&gt;&lt;td&gt;PK&lt;/td&gt;&lt;td&gt;&lt;b&gt;session_id&lt;/b&gt;&lt;/td&gt;&lt;td&gt;string&lt;/td&gt;&lt;/tr&gt;&lt;tr&gt;&lt;td&gt;&lt;br&gt;&lt;/td&gt;&lt;td&gt;expires&lt;/td&gt;&lt;td&gt;number&lt;/td&gt;&lt;/tr&gt;&lt;tr&gt;&lt;td&gt;&lt;/td&gt;&lt;td&gt;data&lt;/td&gt;&lt;td&gt;string&lt;/td&gt;&lt;/tr&gt;&lt;tr&gt;&lt;td&gt;FK&lt;/td&gt;&lt;td&gt;user_id&lt;/td&gt;&lt;td&gt;uuid&lt;/td&gt;&lt;/tr&gt;&lt;/tbody&gt;&lt;/table&gt;" style="verticalAlign=top;align=left;overflow=fill;html=1;whiteSpace=wrap;strokeWidth=2;labelBorderColor=default;" parent="1" vertex="1">
          <mxGeometry x="57.5" y="50" width="170" height="100" as="geometry" />
        </mxCell>
        <mxCell id="5" style="edgeStyle=orthogonalEdgeStyle;html=1;exitX=0;exitY=0.75;exitDx=0;exitDy=0;entryX=0.995;entryY=0.141;entryDx=0;entryDy=0;entryPerimeter=0;" parent="1" source="4" target="0neUY3C6GyZUvxR9DmCA-2" edge="1">
          <mxGeometry relative="1" as="geometry" />
        </mxCell>
        <mxCell id="6" style="edgeStyle=orthogonalEdgeStyle;html=1;entryX=0.001;entryY=0.176;entryDx=0;entryDy=0;exitX=-0.004;exitY=0.602;exitDx=0;exitDy=0;entryPerimeter=0;exitPerimeter=0;" parent="1" source="4" target="0neUY3C6GyZUvxR9DmCA-4" edge="1">
          <mxGeometry relative="1" as="geometry" />
        </mxCell>
        <mxCell id="4" value="&lt;div style=&quot;box-sizing:border-box;width:100%;background:#e4e4e4;padding:2px;&quot;&gt;UserPosts&lt;/div&gt;&lt;table style=&quot;width:100%;font-size:1em;&quot; cellpadding=&quot;2&quot; cellspacing=&quot;0&quot;&gt;&lt;tbody&gt;&lt;tr&gt;&lt;td&gt;PK&lt;/td&gt;&lt;td&gt;user_post_id&lt;/td&gt;&lt;td&gt;uuid&lt;/td&gt;&lt;/tr&gt;&lt;tr&gt;&lt;td&gt;&lt;br&gt;&lt;/td&gt;&lt;td&gt;content&lt;/td&gt;&lt;td&gt;string&lt;/td&gt;&lt;/tr&gt;&lt;tr&gt;&lt;td&gt;FK&lt;/td&gt;&lt;td&gt;post_id&lt;/td&gt;&lt;td&gt;uuid&lt;/td&gt;&lt;/tr&gt;&lt;tr&gt;&lt;td&gt;FK&lt;/td&gt;&lt;td&gt;user_id&lt;/td&gt;&lt;td&gt;uuid&lt;/td&gt;&lt;/tr&gt;&lt;tr&gt;&lt;td&gt;&lt;/td&gt;&lt;td&gt;&lt;br&gt;&lt;/td&gt;&lt;td&gt;&lt;br&gt;&lt;/td&gt;&lt;/tr&gt;&lt;/tbody&gt;&lt;/table&gt;" style="verticalAlign=top;align=left;overflow=fill;html=1;whiteSpace=wrap;strokeWidth=2;labelBorderColor=default;" parent="1" vertex="1">
          <mxGeometry x="290" y="590" width="180" height="110" as="geometry" />
        </mxCell>
      </root>
    </mxGraphModel>
  </diagram>
</mxfile>
